<svg width="180" height="180" viewBox="0 0 180 180" fill="none" xmlns="http://www.w3.org/2000/svg">
  <rect width="180" height="180" rx="28" fill="#20140E"/>
  <circle cx="90" cy="90" r="70" stroke="#C8913B" stroke-width="2"/>
  <path
    d="M97.176 48.84C101.88 48.84 105.576 49.848 108.264 51.864C110.952 53.88 112.296 56.736 112.296 60.432C112.296 63.12 111.48 65.568 109.848 67.776C108.264 69.936 105.744 71.52 102.288 72.528L100.992 71.16C102.72 70.344 104.184 69.072 105.384 67.344C106.632 65.616 107.256 63.528 107.256 61.08C107.256 58.2 106.44 55.92 104.808 54.24C103.176 52.512 100.848 51.648 97.824 51.648C94.848 51.648 92.52 52.416 90.84 53.952C89.208 55.488 88.392 57.624 88.392 60.36C88.392 62.328 88.776 64.032 89.544 65.472C90.36 66.912 91.536 68.352 93.072 69.792L92.424 71.232L86.592 69.288V105.792C86.592 112.272 85.008 117.192 81.84 120.552C78.72 123.864 74.4 125.52 68.88 125.52C65.328 125.52 62.304 124.824 59.808 123.432C57.312 121.992 55.44 120.072 54.192 117.672L56.568 115.512C57.96 117.576 59.568 119.136 61.392 120.192C63.264 121.248 65.352 121.776 67.656 121.776C71.592 121.776 74.616 120.384 76.728 117.6C78.84 114.768 79.896 110.784 79.896 105.648V68.064L72.12 65.688V64.248H79.896V56.904C82.296 54.264 84.96 52.272 87.888 50.928C90.864 49.536 93.96 48.84 97.176 48.84Z"
    fill="#C8913B"
  />
</svg>
